<?xml version="1.0" encoding="utf-8"?>
<!-- Generator: Adobe Illustrator 24.0.0, SVG Export Plug-In . SVG Version: 6.00 Build 0)  -->
<svg version="1.1" id="Layer_1" xmlns="http://www.w3.org/2000/svg" xmlns:xlink="http://www.w3.org/1999/xlink" x="0px" y="0px"
	 viewBox="0 0 110 135" style="enable-background:new 0 0 110 135;" xml:space="preserve">
<path d="M98.3,48.2c-0.1-2.6-0.2-5.1-0.5-7.8c-0.3-2.6-0.8-5.3-1.8-8c-0.5-1.3-1.2-2.6-2-3.8c-0.8-1.1-1.7-2.2-2.6-3.2
	c-1.9-2-4.1-3.7-6.8-5c-2.6-1.2-5.3-1.8-8-2.2c-2.6-0.4-5.2-0.5-7.8-0.7c-5.1-0.2-10.2-0.3-15.2-0.3c-5.1-0.1-10.1-0.2-15.4,0.1
	c-2.6,0.1-5.3,0.4-8.1,1.1c-1.4,0.4-2.8,0.8-4.2,1.5c-0.7,0.3-1.3,0.7-2,1.1c-0.6,0.4-1.2,0.8-1.8,1.2c-2.3,1.8-4.4,3.9-6,6.3
	c-1.8,2.6-2.8,5.5-3.4,8.3c-1.2,5.2-1.4,11.1-0.9,15.7c0.5,4.6,1.6,7.9,4.1,7.8c2.1-0.1,2.9-3.4,3.4-7.7c0.4-4.3,0.4-9.6,1.1-13.4
	c0.4-2.2,0.9-4.1,1.8-5.8c0.4-0.8,1-1.6,1.7-2.4c0.6-0.8,1.4-1.5,2.1-2.2c0.8-0.7,1.6-1.3,2.4-1.8c0.8-0.5,1.6-0.9,2.6-1.2
	c1.9-0.7,4-1.1,6.3-1.3c4.6-0.5,9.5-0.5,14.4-0.5c4.9,0,9.9-0.1,14.7,0c4.8,0.1,9.7,0.2,13.7,1.4c2,0.6,3.6,1.4,5.2,2.8
	c1.6,1.3,3.1,2.9,4.1,4.6c2,3.2,2.6,7.8,2.9,12.6c0.3,4.8,0.2,9.7,0.2,14.6c0,5.2,0,10.3-0.2,15.3c-0.3,5-0.8,9.8-3,13.1
	c-1.2,1.8-2.7,3.4-4.4,4.8c-0.9,0.7-1.7,1.2-2.7,1.6c-0.9,0.4-1.9,0.8-3,1.1c-4.3,1.1-9.5,1.2-14.6,1.3c-5.1,0.1-10.3,0-15.4,0
	C44.2,97,39,97,34.4,96.2c-2.3-0.4-4.4-1-6.1-2.1c-1.8-1.1-3.5-2.6-4.9-4.3c-1.4-1.8-2.3-3.4-2.9-5.6c-0.6-2.1-0.9-4.5-1.1-6.9
	c-0.5-6.5,0.7-16.6-3-17.1c-3.9-0.5-3,10.1-2.6,16.7c0.2,2.6,0.4,5.2,1.1,7.9c0.3,1.3,0.8,2.7,1.3,3.9c0.6,1.3,1.3,2.6,2.1,3.6
	c1.6,2.2,3.6,4.2,5.9,5.8c2.3,1.6,5.1,2.7,7.7,3.3c5.3,1.1,10.5,1.1,15.6,1.3c5.1,0,10.1,0,15.2,0c5.1-0.1,10.2-0.1,15.5-0.9
	c2.6-0.4,5.4-1.2,7.9-2.6c2.5-1.4,4.6-3.2,6.4-5.3c1.8-2.1,3.3-4.6,4.1-7.3c0.9-2.7,1.2-5.3,1.5-7.9c0.4-5.2,0.4-10.3,0.4-15.4
	C98.3,58.3,98.4,53.3,98.3,48.2L98.3,48.2z"/>
<path d="M40,56.8c-0.9,0-2.2-1-2.2,2.7c-0.1,4,1.3,2.9,2.1,2.9c4.1,0.2,8.3,0.1,12.4,0.1c0,4.6,0,9.1,0,13.7c0,0.9-1,2.2,2.7,2.2
	c4,0.1,2.9-1.3,2.9-2.1c0.3-4.6,0.1-9.2,0.1-13.8c4.3,0.1,8.7,0.5,13,1.7c1.2,0.3,3,0.7,2.9-4.3c0-4.1-1.7-3.6-2.8-3.7
	c-4.3-0.1-8.7,0.3-13,0.5c0.2-3.9,0.6-7.7,1.6-11.6c0.3-1.2,0.7-3-4.3-2.9c-4.1,0-3.6,1.7-3.7,2.8c-0.1,3.9,0.3,7.8,0.4,11.7
	C48.1,56.7,44.1,56.7,40,56.8L40,56.8z"/>
</svg>
