<?xml version="1.0" encoding="utf-8"?>
<!-- Generator: Adobe Illustrator 24.0.0, SVG Export Plug-In . SVG Version: 6.00 Build 0)  -->
<svg version="1.1" xmlns="http://www.w3.org/2000/svg" xmlns:xlink="http://www.w3.org/1999/xlink" x="0px" y="0px"
	 viewBox="0 0 200 200" style="enable-background:new 0 0 200 200;" xml:space="preserve">
<style type="text/css">
	.st0{fill:#FFFFFF;}
	.st1{fill:none;}
	.st2{display:none;}
	.st3{display:inline;fill:#FFFFFF;}
	.st4{display:inline;}
</style>
<g id="Layer_1">
	<circle class="st0" cx="100" cy="100" r="100"/>
	<path d="M100,61.5c-21.3,0-38.5,17.2-38.5,38.5s17.2,38.5,38.5,38.5s38.5-17.2,38.5-38.5S121.3,61.5,100,61.5z M100,125
		c-13.8,0-25-11.2-25-25s11.2-25,25-25s25,11.2,25,25S113.8,125,100,125L100,125z M149,60c0,5-4,9-9,9c-5,0-9-4-9-9s4-9,9-9
		C145,51,149,55,149,60z M174.5,69.1c-0.6-12-3.3-22.7-12.1-31.4c-8.8-8.8-19.4-11.5-31.4-12.1c-12.4-0.7-49.5-0.7-61.9,0
		c-12,0.6-22.6,3.3-31.4,12.1S26.1,57,25.5,69c-0.7,12.4-0.7,49.5,0,61.9c0.6,12,3.3,22.7,12.1,31.4s19.4,11.5,31.4,12.1
		c12.4,0.7,49.5,0.7,61.9,0c12-0.6,22.7-3.3,31.4-12.1c8.8-8.8,11.5-19.4,12.1-31.4C175.2,118.5,175.2,81.5,174.5,69.1L174.5,69.1z
		 M158.5,144.2c-2.6,6.6-7.7,11.6-14.3,14.3c-9.9,3.9-33.3,3-44.2,3s-34.4,0.9-44.2-3c-6.6-2.6-11.6-7.7-14.3-14.3
		c-3.9-9.9-3-33.3-3-44.2s-0.9-34.4,3-44.2c2.6-6.6,7.7-11.6,14.3-14.3c9.9-3.9,33.3-3,44.2-3s34.4-0.9,44.2,3
		c6.6,2.6,11.6,7.7,14.3,14.3c3.9,9.9,3,33.3,3,44.2S162.4,134.4,158.5,144.2z"/>
</g>
<g id="Layer_1_copy">
	<circle class="st0" cx="100" cy="100" r="100"/>
	<polygon class="st1" points="85.5,121.3 122.6,100.1 85.5,79 	"/>
	<path d="M170.5,64.5L170.5,64.5c-1.7-6.4-6.7-11.4-13-13.1C146,48.3,100,48.3,100,48.3s-46,0-57.5,3.1c-6.3,1.7-11.3,6.7-13,13.1
		c-3.1,11.6-3.1,35.6-3.1,35.6s0,24.1,3.1,35.6c1.7,6.4,6.7,11.2,13,12.9c11.5,3.1,57.5,3.1,57.5,3.1s46,0,57.5-3.1
		c6.3-1.7,11.3-6.5,13-12.9c3.1-11.6,3.1-35.6,3.1-35.6S173.6,76,170.5,64.5z M85,122V78.2l38.5,21.9L85,122z"/>
</g>
<g id="Layer_1_copy_2" class="st2">
	<circle class="st3" cx="100" cy="100" r="100"/>
	<path class="st4" d="M76.6,112.7V175h34v-62.3h25.3l5.3-28.7h-30.6V73.9c0-15.1,5.9-20.9,21.3-20.9c4.8,0,8.6,0.1,10.8,0.4v-26
		c-4.2-1.1-14.4-2.3-20.4-2.3C91,25,76.6,39.8,76.6,71.7V84H57.3v28.7H76.6z"/>
</g>
</svg>
