<?xml version="1.0" encoding="utf-8"?>
<!-- Generator: Adobe Illustrator 24.0.0, SVG Export Plug-In . SVG Version: 6.00 Build 0)  -->
<svg version="1.1" xmlns="http://www.w3.org/2000/svg" xmlns:xlink="http://www.w3.org/1999/xlink" x="0px" y="0px"
	 viewBox="0 0 119.7 103.4" style="enable-background:new 0 0 119.7 103.4;" xml:space="preserve">
<style type="text/css">
	.st0{display:none;}
	.st1{display:inline;fill-rule:evenodd;clip-rule:evenodd;}
	.st2{display:inline;}
</style>
<g id="Layer_1" class="st0">
	<path class="st1" d="M60,15.5c9.7,0,17.5,7.8,17.5,17.5c0,9.6-7.8,17.4-17.5,17.4s-17.5-7.8-17.5-17.5C42.4,23.3,50.3,15.5,60,15.5
		z M72.6,55.5c4.6,0,9,1.8,12.2,5c3.3,3.3,5,7.7,5,12.2v5.9c0,3.7-2.7,6.8-6.3,7.4l0,0c-16,2.5-31.7,2.5-47.3,0l0,0
		c-3.6-0.6-6.3-3.7-6.3-7.4c0-1.7,0-3.8,0-6c0-4.6,1.8-9,5-12.2c3.3-3.3,7.7-5,12.2-5L72.6,55.5z"/>
</g>
<g id="Layer_2" class="st0">
	<path class="st2" d="M19.5,18.8c0-1.8,1.4-3.4,3.4-3.4l0,0h6.5c3.1,0,5.9,1.8,7.2,4.5h58.1c3.1,0,5.6,2.5,5.6,5.8
		c0,0.5,0,1.1-0.2,1.4l-5.8,21.6c-1.3,4.5-5.2,7.6-9.9,7.6H43.8l0.7,4.1c0.4,1.6,1.6,2.7,3.4,2.7h40.8c1.8,0.2,3.2,1.8,3.2,3.6
		c-0.2,1.6-1.4,3.1-3.2,3.2h-41c-4.9,0-9.2-3.4-10.1-8.3l-7.2-38.5c-0.2-0.5-0.5-0.9-1.1-0.9h-6.5C21.1,22.2,19.5,20.8,19.5,18.8
		L19.5,18.8z M37.7,81.2c0-3.8,3.1-6.8,6.8-6.8s6.8,3.1,6.8,6.8S48.3,88,44.5,88l0,0C40.7,88,37.7,85,37.7,81.2z M85.3,74.4
		c3.8,0,6.8,3.1,6.8,6.8S89.1,88,85.3,88l0,0c-3.8,0-6.8-3.1-6.8-6.8S81.5,74.4,85.3,74.4z"/>
</g>
<g id="Layer_3">
	<path d="M29.1,77.4c1.5,14.8,22.2,13.8,22.8,0h21.6c1.5,14.8,22.2,13.8,22.8,0c21,1.7,12.9-6,14.4-32.1
		c-1.3-29.5,6.4-30.8-17.7-29.5c-28.6,2.8-48.5-9-43.8,14.4C35.3,29.9,32.2,27.8,23,44.9C20.5,46.5,8.9,50,9,53.2
		C10.8,70.9,1,80.6,29.1,77.4z M49.1,37.3V50H28.3c0.4-0.4,8.4-12.5,8.6-12.6H49.1z M84.9,81.2C71.4,68.7,99.3,74.6,84.9,81.2
		L84.9,81.2z M40.5,81.2C27,68.7,54.9,74.6,40.5,81.2L40.5,81.2z"/>
</g>
</svg>
