<?xml version="1.0" encoding="utf-8"?>
<!-- Generator: Adobe Illustrator 24.0.0, SVG Export Plug-In . SVG Version: 6.00 Build 0)  -->
<svg version="1.1" id="Layer_1" xmlns="http://www.w3.org/2000/svg" xmlns:xlink="http://www.w3.org/1999/xlink" x="0px" y="0px"
	 viewBox="0 0 512 512" style="enable-background:new 0 0 512 512;" xml:space="preserve">
<style type="text/css">
	.st0{display:none;}
	.st1{display:inline;}
	.st2{display:inline;stroke:#000000;stroke-width:17;stroke-miterlimit:10;}
	.st3{fill:#232323;stroke:#232323;stroke-width:14;stroke-miterlimit:10;}
</style>
<g id="search" class="st0">
	<path class="st1" d="M414.1,206.4c0,45.9-14.9,88.3-40,122.7l126.6,126.7c12.5,12.5,12.5,32.8,0,45.3s-32.8,12.5-45.3,0
		L328.8,374.4c-34.4,25.2-76.8,40-122.7,40c-114.9,0-208-93.1-208-208s93.1-208,208-208S414.1,91.5,414.1,206.4z M206.1,350.4
		c79.5,0,144-64.5,144-144s-64.5-144-144-144s-144,64.5-144,144S126.6,350.4,206.1,350.4z"/>
</g>
<g id="Layer_2_1_" class="st0">
	<path class="st2" d="M336.3,137.6c0-44.2-35.8-80-80-80s-80,35.8-80,80s35.8,80,80,80S336.3,181.8,336.3,137.6z M128.3,137.6
		c0-70.7,57.3-128,128-128s128,57.3,128,128s-57.3,128-128,128S128.3,208.3,128.3,137.6z M64.4,455.6h383.3
		c-9.8-63.3-69.4-112-141.5-112H205.9C133.8,343.6,74.1,392.3,64.4,455.6z M10.3,473.9c0-98.5,87.5-178.3,195.6-178.3h100.3
		c108.1,0,195.6,79.8,195.6,178.3c0,16.4-14.6,29.7-32.6,29.7H42.9C24.9,503.6,10.3,490.3,10.3,473.9z"/>
</g>
<g id="Layer_3">
	<path class="st3" d="M227.5,489.4l-2.4-2.6L55.5,304C25.8,272,8.9,227,8.9,180v-3.7c0-79.1,48.4-147,115.4-161.8
		c38.1-8.5,77.1,1.7,108.2,27.1c8.7,7.2,16.8,15.5,24.2,25.1c4.1-5.4,8.4-10.3,13.1-14.9c3.6-3.6,7.3-7,11.1-10.1l0,0
		C312,16.1,351,5.9,389.1,14.3c67,14.8,115.4,82.8,115.4,161.9v3.7c0,47.1-16.8,92-46.6,124L288.3,486.8l-2.4,2.6
		c-7.9,8.5-18.4,13.4-29.2,13.4C245.9,502.7,235.4,498,227.5,489.4L227.5,489.4z M240.3,126.2c-0.4-0.3-0.7-0.8-1-1.2l-17.2-22.5
		l-0.1-0.1l0,0c-22.4-29.1-56.1-42.4-89-35.1c-45.1,10-77.6,55.6-77.6,108.9v3.7c0,32,11.5,62.7,31.7,84.5l169.6,182.8l169.6-182.8
		c20.2-21.8,31.7-52.5,31.7-84.5v-3.7c0-53.1-32.5-98.9-77.5-108.9c-32.9-7.3-66.8,6.1-89,35.1c0,0,0,0-0.1,0.1s0,0-0.1,0.1
		L274,125.1c-0.3,0.4-0.7,0.8-1,1.2c-4.4,5.1-10.3,7.9-16.4,7.9S244.6,131.4,240.3,126.2L240.3,126.2L240.3,126.2z"/>
</g>
</svg>
