<?xml version="1.0" encoding="utf-8"?>
<!-- Generator: Adobe Illustrator 24.0.0, SVG Export Plug-In . SVG Version: 6.00 Build 0)  -->
<svg version="1.1" id="Layer_1" xmlns="http://www.w3.org/2000/svg" xmlns:xlink="http://www.w3.org/1999/xlink" x="0px" y="0px"
	 viewBox="0 0 512 512" style="enable-background:new 0 0 512 512;" xml:space="preserve">
<style type="text/css">
	.st0{fill:#232323;}
	.st1{display:none;}
	.st2{display:inline;stroke:#000000;stroke-width:17;stroke-miterlimit:10;}
</style>
<g id="search">
	<path class="st0" d="M414.1,206.4c0,45.9-14.9,88.3-40,122.7l126.6,126.7c12.5,12.5,12.5,32.8,0,45.3s-32.8,12.5-45.3,0
		L328.8,374.4c-34.4,25.2-76.8,40-122.7,40c-114.9,0-208-93.1-208-208s93.1-208,208-208S414.1,91.5,414.1,206.4z M206.1,350.4
		c79.5,0,144-64.5,144-144s-64.5-144-144-144s-144,64.5-144,144S126.6,350.4,206.1,350.4z"/>
</g>
<g id="Layer_2_1_" class="st1">
	<path class="st2" d="M336.3,137.6c0-44.2-35.8-80-80-80s-80,35.8-80,80s35.8,80,80,80S336.3,181.8,336.3,137.6z M128.3,137.6
		c0-70.7,57.3-128,128-128s128,57.3,128,128s-57.3,128-128,128S128.3,208.3,128.3,137.6z M64.4,455.6h383.3
		c-9.8-63.3-69.4-112-141.5-112H205.9C133.8,343.6,74.1,392.3,64.4,455.6z M10.3,473.9c0-98.5,87.5-178.3,195.6-178.3h100.3
		c108.1,0,195.6,79.8,195.6,178.3c0,16.4-14.6,29.7-32.6,29.7H42.9C24.9,503.6,10.3,490.3,10.3,473.9z"/>
</g>
</svg>
