<?xml version="1.0" encoding="utf-8"?>
<!-- Generator: Adobe Illustrator 24.0.0, SVG Export Plug-In . SVG Version: 6.00 Build 0)  -->
<svg version="1.1" xmlns="http://www.w3.org/2000/svg" xmlns:xlink="http://www.w3.org/1999/xlink" x="0px" y="0px"
	 viewBox="0 0 120.1 25.4" style="enable-background:new 0 0 120.1 25.4;" xml:space="preserve">
<style type="text/css">
	.st0{display:none;}
	.st1{display:inline;}
	.st2{fill:#FFFFFF;}
</style>
<g id="Layer_1">
	<path d="M4.7,17.1c1.5,0,1.8-0.1,1.8-0.5V5.3H3.7c-0.8,0-1.1,0.4-1.1,2.1H1.8c-0.3,0-0.4-0.1-0.4-0.4V4h12.1v3
		c0,0.3-0.1,0.4-0.5,0.4h-0.8c0-1.7-0.3-2.1-1.1-2.1H8.3v11.3c0,0.4,0.3,0.5,1.6,0.5c0.2,0,0.3,0.1,0.3,0.2c0,0.4-0.1,0.8-0.1,1H4.9
		C4.6,18,4.6,17.5,4.7,17.1z"/>
	<path d="M13.9,12.9c0-3,1.9-5.3,4.8-5.3c2.9,0,4.6,1.9,4.6,5.1c0,0.4-0.3,0.7-0.7,0.7h-6.9c0,2.4,1.1,3.6,3.3,3.6
		c1.6,0,2.6-0.8,3.2-1.5l0.7,0.8c0.2,0.2,0.1,0.4-0.2,0.7c-1,0.9-2.3,1.4-3.8,1.4C15.6,18.5,13.9,16.5,13.9,12.9z M21.6,12.2
		c0-1.9-1.1-3.1-2.8-3.1c-1.7,0-2.8,1.2-3,3.1H21.6z"/>
	<path d="M25,15.7c0-2,1.5-3.4,4.2-3.4h2.3v-0.6c0-2-0.6-2.7-2.2-2.7c-0.8,0-1.3,0.1-1.8,0.5c-0.2,0.2-0.4,1-0.4,1.5h-0.8
		c-0.3,0-0.6-0.1-0.6-0.3V9c0.8-0.7,2-1.3,3.7-1.3c2.3,0,3.9,1.3,3.9,3.7v5.3c0,0.1,0,0.4,0.1,0.5h1.3c0.1,0.2,0.1,0.4,0.1,0.8
		c-0.4,0.3-1.3,0.5-2.1,0.5c-0.6,0-1-0.6-1.2-1.1c-0.8,0.7-2.1,1.2-3.3,1.2C25.8,18.5,25,17.2,25,15.7z M31.5,15.9v-2.2h-2.2
		c-1.5,0-2.5,0.7-2.5,1.9c0,1.1,0.6,1.6,1.7,1.6C29.6,17.1,30.7,16.7,31.5,15.9z"/>
	<path d="M54.3,17c-0.9,1.6-2.2,2-3.3,1.8c-0.7-0.1-1.5-0.6-2.3-1.4c-1,0.9-2.4,1.5-4.2,1.5c-2.5,0-5.2-1.3-5.2-4
		c0-2.1,1.4-3.3,3.5-4.2l-0.6-0.8c-1-1.2-1.4-2-1.4-3.2c0-1.8,1.5-3.1,4-3.1c2.2,0,4,1.1,4,3.1c0,1.5-1.1,3.1-3.5,4.3l2.1,2.5
		c0.4,0.5,0.9,1.1,1.4,1.6c0.6-1.1,1-2.6,1.1-3.4c0-0.4-0.3-0.5-1.2-0.5v-1.1h4.1v1.1c-1,0-1.3,0.1-1.3,0.5c-0.1,0.8-0.7,3-1.5,4.4
		c0.7,0.7,1.3,1.2,1.7,1.2c0.8,0.1,1.4-0.4,1.8-1L54.3,17z M44.6,17.5c1,0,2.1-0.4,3-1.1c-0.4-0.4-0.8-0.9-1.2-1.4l-2.8-3.3
		c-1.6,0.8-2.5,1.5-2.5,3.1C41.1,16.7,43,17.5,44.6,17.5z M42.5,6.7c0,0.9,0.4,1.5,1.3,2.6l0.6,0.7c1.8-1,2.5-2,2.5-3.3
		c0-1-0.8-1.8-2.2-1.8C43.4,4.9,42.5,5.6,42.5,6.7z"/>
	<path d="M62.4,17.1c1.3,0,1.6-0.1,1.6-0.5v-4.1l-4.7-6.9C59,5.2,59,5.1,58,5.1c-0.2,0-0.3-0.1-0.3-0.2c0-0.3,0.1-0.7,0.1-0.9h4.8
		c0.2,0.3,0.3,0.7,0.2,1.1c-1.2,0-1.7,0.1-1.4,0.5L65,11l3.7-5.4c0.2-0.3-0.2-0.5-1.1-0.5c-0.2,0-0.3-0.1-0.3-0.2
		c0-0.3,0.1-0.7,0.1-0.9h4.3c0.2,0.3,0.3,0.7,0.2,1.1c-1.1,0-1.2,0.2-1.4,0.5l-4.8,6.9v4.1c0,0.4,0.3,0.5,1.3,0.5
		c0.2,0,0.3,0.1,0.3,0.2c0,0.4-0.1,0.8-0.2,1h-4.7C62.3,18,62.3,17.5,62.4,17.1z"/>
	<path d="M71.7,13.1c0-3.5,2.2-5.4,5.1-5.4c2.9,0,5.1,1.9,5.1,5.4c0,3.5-2.2,5.5-5.1,5.5C73.9,18.5,71.7,16.6,71.7,13.1z M80.1,13.1
		c0-2.5-1.4-4-3.3-4c-2,0-3.3,1.5-3.3,4c0,2.5,1.4,4,3.3,4C78.8,17.1,80.1,15.5,80.1,13.1z"/>
	<path d="M84.6,14.9V9.7c0-0.4-0.1-0.5-0.3-0.5h-1.2C83.1,8.9,83,8.8,83,8.6c0-0.2,0.1-0.3,0.3-0.3C84,8,85.2,7.8,85.7,7.8
		c0.6,0,0.7,0.3,0.7,0.7v5.7c0,1.9,0.5,2.7,1.9,2.7c0.9,0,2.2-0.6,2.9-1.6V9.7c0-0.4-0.1-0.5-0.3-0.5h-1.2c-0.1-0.2-0.2-0.5-0.2-0.6
		c0-0.2,0.1-0.3,0.3-0.3c0.7-0.3,1.9-0.5,2.4-0.5c0.6,0,0.7,0.3,0.7,0.7v7.4c0,0.4,0,0.8,0.1,1.1h1c0.1,0.3,0.1,0.5,0.1,1
		c-0.3,0.3-1.1,0.5-1.9,0.5c-0.4,0-1.1-1-1.2-1.8c-0.7,1-2,1.8-3.3,1.8C85.9,18.5,84.6,17.1,84.6,14.9z"/>
	<path d="M95.5,17.2c1.2,0,1.5,0,1.5-0.5v-7c0-0.4-0.1-0.5-0.3-0.5h-1.2c-0.1-0.2-0.1-0.5-0.1-0.7c0-0.2,0.1-0.3,0.3-0.3
		c0.7-0.3,1.9-0.5,2.4-0.5c0.6,0,0.7,0.3,0.7,0.7v1c0.7-0.9,1.9-1.6,3.2-1.6c2.1,0,3.4,1.5,3.4,3.7v5.3c0,0.5,0.2,0.5,1.2,0.5
		c0.2,0,0.3,0.1,0.3,0.2c0,0.3-0.1,0.6-0.2,0.9h-4.3c-0.2-0.3-0.3-0.7-0.2-1.1c1.2,0,1.4,0,1.4-0.5v-4.6c0-2-0.6-2.8-2.1-2.8
		c-0.9,0-2.1,0.7-2.8,1.7v5.7c0,0.5,0.1,0.5,1.1,0.5c0.2,0,0.3,0.1,0.3,0.2c0,0.3-0.1,0.6-0.2,0.9h-4.3C95.4,18,95.4,17.6,95.5,17.2
		z"/>
	<path d="M107.9,20.4c0-1.2,0.8-2.1,1.8-2.6c-0.5-0.4-0.8-0.8-0.9-1.4c0-0.8,0.4-1.4,1.3-1.9c-1.1-0.7-1.7-1.7-1.7-3.1
		c0-2.1,1.5-3.7,4.2-3.7c0.9,0,1.5,0.2,2,0.4l3.2-0.5c0.2,0,0.4,0.1,0.4,0.2c0,0.3-0.1,0.9-0.2,1.3h-2.1c0.5,0.5,0.8,1.4,0.8,2.2
		c-0.1,2.4-1.5,3.7-4.1,3.7c-0.5,0-0.9,0-1.3-0.1c-0.4,0.2-0.8,0.5-0.8,1c0,0.8,0.8,1.1,2.8,1.1c3.3,0,4.4,1,4.4,2.9
		c0,2.1-1.9,3.4-5.2,3.4C109.7,23.4,107.9,22.1,107.9,20.4z M116,20.1c0-1.1-0.6-1.6-3.1-1.6c-0.9,0-1.5,0-2-0.2
		c-0.8,0.4-1.3,1-1.2,1.9c0,1.1,1,1.8,3.1,1.8C114.9,22,116,21.3,116,20.1z M115,11.3c0-1.4-0.7-2.4-2.4-2.4c-1.6,0-2.4,1.1-2.4,2.4
		c0,1.5,0.8,2.5,2.4,2.5C114.3,13.8,115,12.8,115,11.3z"/>
	<g>
		<path d="M78.8,11c0-0.1,0-0.1-0.1-0.2l-0.8-0.7c-0.3-0.2-0.6-0.2-0.9,0l-0.8,0.7c-0.1,0-0.1,0.1-0.1,0.2l-0.1,2
			c0,0.2,0,0.3,0.2,0.5s0.3,0.2,0.5,0.2h1.8c0.2,0,0.3-0.1,0.5-0.2s0.2-0.3,0.2-0.5L78.8,11L78.8,11z"/>
		<path d="M77.4,10.3c-0.2,0-0.3-0.2-0.3-0.3V7.3c0-0.2,0.2-0.3,0.3-0.3s0.3,0.2,0.3,0.3V10C77.8,10.2,77.6,10.3,77.4,10.3z"/>
	</g>
</g>
<g id="Layer_3" class="st0">
	<rect x="-1.4" y="-0.7" class="st1" width="130.3" height="27.8"/>
</g>
<g id="Layer_1_copy" class="st0">
	<g class="st1">
		<g>
			<path class="st2" d="M4.7,17.1c1.5,0,1.8-0.1,1.8-0.5V5.3H3.7c-0.8,0-1.1,0.4-1.1,2.1H1.8c-0.3,0-0.4-0.1-0.4-0.4V4h12.1v3
				c0,0.3-0.1,0.4-0.5,0.4h-0.8c0-1.7-0.3-2.1-1.1-2.1H8.3v11.3c0,0.4,0.3,0.5,1.6,0.5c0.2,0,0.3,0.1,0.3,0.2c0,0.4-0.1,0.8-0.1,1
				H4.9C4.6,18,4.6,17.5,4.7,17.1z"/>
			<path class="st2" d="M13.9,12.9c0-3,1.9-5.3,4.8-5.3c2.9,0,4.6,1.9,4.6,5.1c0,0.4-0.3,0.7-0.7,0.7h-6.9c0,2.4,1.1,3.6,3.3,3.6
				c1.6,0,2.6-0.8,3.2-1.5l0.7,0.8c0.2,0.2,0.1,0.4-0.2,0.7c-1,0.9-2.3,1.4-3.8,1.4C15.6,18.5,13.9,16.5,13.9,12.9z M21.6,12.2
				c0-1.9-1.1-3.1-2.8-3.1c-1.7,0-2.8,1.2-3,3.1H21.6z"/>
			<path class="st2" d="M25,15.7c0-2,1.5-3.4,4.2-3.4h2.3v-0.6c0-2-0.6-2.7-2.2-2.7c-0.8,0-1.3,0.1-1.8,0.5c-0.2,0.2-0.4,1-0.4,1.5
				h-0.8c-0.3,0-0.6-0.1-0.6-0.3V9c0.8-0.7,2-1.3,3.7-1.3c2.3,0,3.9,1.3,3.9,3.7v5.3c0,0.1,0,0.4,0.1,0.5h1.3
				c0.1,0.2,0.1,0.4,0.1,0.8c-0.4,0.3-1.3,0.5-2.1,0.5c-0.6,0-1-0.6-1.2-1.1c-0.8,0.7-2.1,1.2-3.3,1.2C25.8,18.5,25,17.2,25,15.7z
				 M31.5,15.9v-2.2h-2.2c-1.5,0-2.5,0.7-2.5,1.9c0,1.1,0.6,1.6,1.7,1.6C29.6,17.1,30.7,16.7,31.5,15.9z"/>
			<path class="st2" d="M57.3,17c-0.9,1.6-2.2,2-3.3,1.8c-0.7-0.1-1.5-0.6-2.3-1.4c-1,0.9-2.4,1.5-4.2,1.5c-2.5,0-5.2-1.3-5.2-4
				c0-2.1,1.4-3.3,3.5-4.2l-0.6-0.8c-1-1.2-1.4-2-1.4-3.2c0-1.8,1.5-3.1,4-3.1c2.2,0,4,1.1,4,3.1c0,1.5-1.1,3.1-3.5,4.3l2.1,2.5
				c0.4,0.5,0.9,1.1,1.4,1.6c0.6-1.1,1-2.6,1.1-3.4c0-0.4-0.3-0.5-1.2-0.5v-1.1h4.1v1.1c-1,0-1.3,0.1-1.3,0.5
				c-0.1,0.8-0.7,3-1.5,4.4c0.7,0.7,1.3,1.2,1.7,1.2c0.8,0.1,1.4-0.4,1.8-1L57.3,17z M47.6,17.5c1,0,2.1-0.4,3-1.1
				c-0.4-0.4-0.8-0.9-1.2-1.4l-2.8-3.3c-1.6,0.8-2.5,1.5-2.5,3.1C44.1,16.7,46,17.5,47.6,17.5z M45.5,6.7c0,0.9,0.4,1.5,1.3,2.6
				l0.6,0.7c1.8-1,2.5-2,2.5-3.3c0-1-0.8-1.8-2.2-1.8C46.4,4.9,45.5,5.6,45.5,6.7z"/>
			<path class="st2" d="M68.4,17.1c1.3,0,1.6-0.1,1.6-0.5v-4.1l-4.7-6.9C65,5.2,65,5.1,64,5.1c-0.2,0-0.3-0.1-0.3-0.2
				c0-0.3,0.1-0.7,0.1-0.9h4.8c0.2,0.3,0.3,0.7,0.2,1.1c-1.2,0-1.7,0.1-1.4,0.5L71,11l3.7-5.4c0.2-0.3-0.2-0.5-1.1-0.5
				c-0.2,0-0.3-0.1-0.3-0.2c0-0.3,0.1-0.7,0.1-0.9h4.3c0.2,0.3,0.3,0.7,0.2,1.1c-1.1,0-1.2,0.2-1.4,0.5l-4.8,6.9v4.1
				c0,0.4,0.3,0.5,1.3,0.5c0.2,0,0.3,0.1,0.3,0.2c0,0.4-0.1,0.8-0.2,1h-4.7C68.3,18,68.3,17.5,68.4,17.1z"/>
			<path class="st2" d="M77.7,13.1c0-3.5,2.2-5.4,5.1-5.4c2.9,0,5.1,1.9,5.1,5.4c0,3.5-2.2,5.5-5.1,5.5
				C79.9,18.5,77.7,16.6,77.7,13.1z M86.1,13.1c0-2.5-1.4-4-3.3-4c-2,0-3.3,1.5-3.3,4c0,2.5,1.4,4,3.3,4
				C84.8,17.1,86.1,15.5,86.1,13.1z"/>
			<path class="st2" d="M90.6,14.9V9.7c0-0.4-0.1-0.5-0.3-0.5h-1.2C89.1,8.9,89,8.8,89,8.6c0-0.2,0.1-0.3,0.3-0.3
				C90,8,91.2,7.8,91.7,7.8c0.6,0,0.7,0.3,0.7,0.7v5.7c0,1.9,0.5,2.7,1.9,2.7c0.9,0,2.2-0.6,2.9-1.6V9.7c0-0.4-0.1-0.5-0.3-0.5h-1.2
				c-0.1-0.2-0.2-0.5-0.2-0.6c0-0.2,0.1-0.3,0.3-0.3c0.7-0.3,1.9-0.5,2.4-0.5c0.6,0,0.7,0.3,0.7,0.7v7.4c0,0.4,0,0.8,0.1,1.1h1
				c0.1,0.3,0.1,0.5,0.1,1c-0.3,0.3-1.1,0.5-1.9,0.5c-0.4,0-1.1-1-1.2-1.8c-0.7,1-2,1.8-3.3,1.8C91.9,18.5,90.6,17.1,90.6,14.9z"/>
			<path class="st2" d="M101.5,17.2c1.2,0,1.5,0,1.5-0.5v-7c0-0.4-0.1-0.5-0.3-0.5h-1.2c-0.1-0.2-0.1-0.5-0.1-0.7
				c0-0.2,0.1-0.3,0.3-0.3c0.7-0.3,1.9-0.5,2.4-0.5c0.6,0,0.7,0.3,0.7,0.7v1c0.7-0.9,1.9-1.6,3.2-1.6c2.1,0,3.4,1.5,3.4,3.7v5.3
				c0,0.5,0.2,0.5,1.2,0.5c0.2,0,0.3,0.1,0.3,0.2c0,0.3-0.1,0.6-0.2,0.9h-4.3c-0.2-0.3-0.3-0.7-0.2-1.1c1.2,0,1.4,0,1.4-0.5v-4.6
				c0-2-0.6-2.8-2.1-2.8c-0.9,0-2.1,0.7-2.8,1.7v5.7c0,0.5,0.1,0.5,1.1,0.5c0.2,0,0.3,0.1,0.3,0.2c0,0.3-0.1,0.6-0.2,0.9h-4.3
				C101.4,18,101.4,17.6,101.5,17.2z"/>
			<path class="st2" d="M113.9,20.4c0-1.2,0.8-2.1,1.8-2.6c-0.5-0.4-0.8-0.8-0.9-1.4c0-0.8,0.4-1.4,1.3-1.9
				c-1.1-0.7-1.7-1.7-1.7-3.1c0-2.1,1.5-3.7,4.2-3.7c0.9,0,1.5,0.2,2,0.4l3.2-0.5c0.2,0,0.4,0.1,0.4,0.2c0,0.3-0.1,0.9-0.2,1.3h-2.1
				c0.5,0.5,0.8,1.4,0.8,2.2c-0.1,2.4-1.5,3.7-4.1,3.7c-0.5,0-0.9,0-1.3-0.1c-0.4,0.2-0.8,0.5-0.8,1c0,0.8,0.8,1.1,2.8,1.1
				c3.3,0,4.4,1,4.4,2.9c0,2.1-1.9,3.4-5.2,3.4C115.7,23.4,113.9,22.1,113.9,20.4z M122,20.1c0-1.1-0.6-1.6-3.1-1.6
				c-0.9,0-1.5,0-2-0.2c-0.8,0.4-1.3,1-1.2,1.9c0,1.1,1,1.8,3.1,1.8C120.9,22,122,21.3,122,20.1z M121,11.3c0-1.4-0.7-2.4-2.4-2.4
				c-1.6,0-2.4,1.1-2.4,2.4c0,1.5,0.8,2.5,2.4,2.5C120.3,13.8,121,12.8,121,11.3z"/>
		</g>
		<g>
			<path class="st2" d="M85.2,10.9c0-0.1-0.1-0.2-0.1-0.2L84,9.8c-0.3-0.3-0.8-0.3-1.1,0l-1.1,0.8c-0.1,0.1-0.1,0.2-0.1,0.2
				l-0.2,2.5c0,0.2,0.1,0.4,0.2,0.6c0.1,0.2,0.4,0.2,0.6,0.2h2.3c0.2,0,0.4-0.1,0.6-0.2s0.2-0.4,0.2-0.6L85.2,10.9L85.2,10.9z"/>
			<path class="st2" d="M83.4,10.3c-0.2,0-0.3-0.2-0.3-0.3V7.3c0-0.2,0.2-0.3,0.3-0.3s0.3,0.2,0.3,0.3V10
				C83.8,10.2,83.6,10.3,83.4,10.3z"/>
		</g>
	</g>
</g>
</svg>
