<?xml version="1.0" encoding="utf-8"?>
<!-- Generator: Adobe Illustrator 24.0.0, SVG Export Plug-In . SVG Version: 6.00 Build 0)  -->
<svg version="1.1" id="Layer_1" xmlns="http://www.w3.org/2000/svg" xmlns:xlink="http://www.w3.org/1999/xlink" x="0px" y="0px"
	 viewBox="0 0 100 125" style="enable-background:new 0 0 100 125;" xml:space="preserve">
<title>Artboard 30</title>
<circle cx="40" cy="43" r="3"/>
<circle cx="60" cy="43" r="3"/>
<path d="M43,59.3c0,0.9,0.8,1.7,1.7,1.7h10.6c0.9,0,1.7-0.8,1.7-1.7c0.1-3.8-2.8-7-6.6-7.3H50c-3.9,0-7,3.1-7,7V59.3z"/>
<path d="M23.9,63.7l-0.2,0.5c-0.6,1.4-1.4,2.7-2.2,3.9l-1.3,2c-2.2,3.2-1.3,7.6,1.9,9.7c1.2,0.8,2.5,1.2,3.9,1.2
	c5.5,0,10.8-1.7,15.3-4.8l0.4-0.3l0.4,0.1c2.6,0.6,5.2,1,7.9,1c17.1,0,31-13,31-29S67.1,19,50,19S19,32,19,48
	c0,5.4,1.6,10.7,4.6,15.2L23.9,63.7z M29.6,61.7L29.6,61.7c-0.2-0.4-0.4-0.9-0.7-1.3c-1.3-1.8-2.3-3.8-3-5.9c-0.7-2.1-1-4.3-1-6.6
	c0-12.7,11.2-23,25-23s25,10.3,25,23S63.8,71,50,71c-0.5,0-1.1,0-1.6,0c-1.6-0.1-3.2-0.3-4.7-0.7c-2-0.5-4.2-0.1-5.9,1.1
	C34.3,73.8,30.2,75,26,75c-0.6,0-1-0.5-1-1c0-0.2,0.1-0.4,0.2-0.5l1.3-2c1.2-1.8,2.2-3.7,3.1-5.7C30.1,64.4,30.2,63,29.6,61.7
	L29.6,61.7z"/>
</svg>
