<?xml version="1.0" encoding="utf-8"?>
<!-- Generator: Adobe Illustrator 24.0.0, SVG Export Plug-In . SVG Version: 6.00 Build 0)  -->
<svg version="1.1" id="Layer_1" xmlns="http://www.w3.org/2000/svg" xmlns:xlink="http://www.w3.org/1999/xlink" x="0px" y="0px"
	 viewBox="0 0 110 66.8" style="enable-background:new 0 0 110 66.8;" xml:space="preserve">
<style type="text/css">
	.st0{display:none;}
	.st1{display:inline;}
	.st2{fill:#FFFFFF;}
</style>
<g id="Layer_2_1_" class="st0">
	<rect x="8.5" y="2.2" class="st1" width="91.5" height="63.2"/>
</g>
<g id="Layer_1_1_">
	<path class="st2" d="M86.9,43c0.2-0.9,0.3-1.9,0.3-2.9v-0.6c7.1-0.1,12.9-6,12.9-13.1c0-7.2-5.9-13.1-13.1-13.1
		c-0.4,0-0.8,0-1.2,0.1c-0.3-2-0.6-3.7-0.8-5.4l0,0c0-0.1,0-0.2-0.1-0.3l0,0l-0.1-0.3h-0.1c-2-4-20.3-5.1-30.2-5.1s-28.2,1-30.2,5
		h-0.1l-0.1,0.3l0,0L24,7.9l0,0c-0.9,5.6-1.5,11.9-1.9,18.9c0,0.5-0.1,1-0.1,1.5c0,3.7-0.1,7.7-0.1,11.8c0,1,0.1,2,0.3,2.9
		C14.6,45.4,10,48.6,10,52.2c0,7.4,19.6,13.2,44.5,13.2S99,59.6,99,52.2C99.1,48.6,94.5,45.4,86.9,43L86.9,43z M86.9,28.3
		c0-0.5,0-1-0.1-1.5c-0.1-1.9-0.2-3.7-0.3-5.4c0.1,0,0.3,0,0.4,0c2.7,0,4.9,2.2,4.9,4.9s-2.2,4.9-4.8,4.9
		C87,30.3,86.9,29.3,86.9,28.3L86.9,28.3z M86.9,14.7c6.4,0,11.6,5.2,11.6,11.6c0,6.3-5.1,11.5-11.4,11.6c0-1.8,0-3.5-0.1-5.2
		c3.5-0.1,6.3-2.9,6.3-6.4s-2.9-6.4-6.4-6.4c-0.2,0-0.3,0-0.5,0c-0.1-1.8-0.3-3.5-0.5-5.2C86.2,14.7,86.6,14.7,86.9,14.7L86.9,14.7z
		 M85,21.8c0.1,1.6,0.2,3.3,0.3,5c-1.8-0.2-2.8-1.2-3.9-2.2c-1.3-1.3-2.8-2.7-5.8-2.7c-2.9,0-4.4,1.4-5.8,2.7
		c-0.3,0.3-0.7,0.6-1,0.9L67,23.6c-0.3-0.3-0.7-0.5-1.1-0.5h-2.6v-9.4c8.2-0.4,17.3-1.5,20.5-3.8c0.2,1.2,0.3,2.4,0.5,3.6
		c0.1,0.5,0.1,1,0.2,1.5c0.2,1.7,0.4,3.5,0.5,5.3C85,20.7,85,21.3,85,21.8L85,21.8z M69.3,32.7v13.1H55.9V32.7H69.3z M66.1,12
		c-0.9,0.1-1.8,0.1-2.8,0.2V9.7c0-0.8,0.6-1.4,1.4-1.4c0.8,0,1.4,0.6,1.4,1.4V12z M54.5,3.7c16.2,0,25.9,2.1,28.3,3.6
		c0.4,0.3,0.6,0.5,0.6,0.7s-0.2,0.5-0.6,0.7c-1.7,1.1-6.9,2.4-15.3,3.1V9.7c0-1.6-1.3-2.9-2.9-2.9s-2.9,1.3-2.9,2.9v2.6
		c-2.3,0.1-4.7,0.2-7.3,0.2c-16.2,0-25.9-2.1-28.3-3.7c-0.4-0.3-0.6-0.5-0.6-0.7s0.2-0.5,0.6-0.7C28.7,5.7,38.3,3.7,54.5,3.7
		L54.5,3.7z M25.3,9.9c4.5,3.1,20.2,4,29.2,4c2.1,0,4.6-0.1,7.3-0.2V23h-2.6c-0.2,0-0.4,0-0.5,0.1c-1-0.7-2.3-1.3-4.1-1.3
		c-2.9,0-4.4,1.4-5.8,2.7c-1.3,1.2-2.4,2.3-4.8,2.3c-2.3,0-3.5-1.1-4.8-2.3c-1.3-1.3-2.8-2.7-5.8-2.7c-2.9,0-4.4,1.4-5.8,2.7
		c-1.1,1.1-2.1,2-3.9,2.2C24.1,20.6,24.6,14.9,25.3,9.9L25.3,9.9z M23.7,28.3c2.4-0.2,3.8-1.5,5-2.6c1.3-1.2,2.4-2.3,4.8-2.3
		c2.3,0,3.5,1,4.8,2.3c1.3,1.2,2.8,2.7,5.8,2.7c2.9,0,4.4-1.4,5.8-2.7c1.3-1.2,2.4-2.3,4.8-2.3c1.3,0,2.2,0.3,2.9,0.8l-2.2,2.3
		c-0.6,0.6-0.9,1.5-0.9,2.3v16.6c0,1.1,0.9,2,2,2h12.4c1.1,0,2-0.9,2-2V28.8c0-0.8-0.3-1.6-0.9-2.2c0.3-0.3,0.7-0.6,1-0.9
		c1.3-1.2,2.4-2.3,4.8-2.3c2.3,0,3.5,1,4.8,2.3c1.2,1.1,2.6,2.4,5,2.6c0,0.9,0.1,1.8,0.1,2.8c0,0.5,0,1,0,1.5c0,1.7,0.1,3.5,0.1,5.3
		c0,0.5,0,1,0,1.5v0.7c0,13.4-16.1,18.2-31.1,18.2s-31.1-4.8-31.1-18.2C23.4,36,23.5,32,23.7,28.3L23.7,28.3z M54.5,63.9
		c-25.8,0-43.1-6.1-43.1-11.7c0-2.7,4-5.5,11.1-7.7c2.7,9.5,14.4,15.3,32,15.3s29.3-5.7,32-15.3c7,2.2,11.1,5,11.1,7.7
		C97.6,57.8,80.3,63.9,54.5,63.9z"/>
</g>
</svg>
