<?xml version="1.0" encoding="utf-8"?>
<!-- Generator: Adobe Illustrator 24.0.0, SVG Export Plug-In . SVG Version: 6.00 Build 0)  -->
<svg version="1.1" id="Layer_1" xmlns="http://www.w3.org/2000/svg" xmlns:xlink="http://www.w3.org/1999/xlink" x="0px" y="0px"
	 viewBox="0 0 100 61.8" style="enable-background:new 0 0 100 61.8;" xml:space="preserve">
<style type="text/css">
	.st0{display:none;}
	.st1{display:inline;}
	.st2{fill:#66006F;}
	.st3{fill:#FFFFFF;}
</style>
<g id="Layer_2_1_" class="st0">
	<g class="st1">
		<rect x="-17.9" y="-6.5" class="st2" width="131.9" height="77.5"/>
	</g>
	<g class="st1">
		<rect x="-17.9" y="-6.5" class="st2" width="131.9" height="77.5"/>
	</g>
</g>
<g id="Layer_1_1_">
	<g>
		<g>
			<path class="st3" d="M53.8,38.5c-0.5,0-1-0.1-1.5-0.4c-0.7-0.4-0.9-1.3-1-1.8c-0.1-0.8,0-1.5,0.5-2.1c1.1-1.1,3-1.2,4-0.3
				c0.6,0.6,0.9,1.2,0.9,1.9c0,0.7-0.4,1.5-1,2c-0.4,0.4-0.9,0.6-1.4,0.7C54.1,38.5,54,38.5,53.8,38.5z M54,34.3
				c-0.5,0-1.1,0.2-1.5,0.6c-0.2,0.3-0.3,0.8-0.3,1.3c0.1,0.6,0.3,1,0.6,1.2c0.4,0.2,0.9,0.3,1.2,0.2c0.4-0.1,0.7-0.2,0.9-0.5l0,0
				c0.4-0.3,0.6-0.8,0.6-1.2c0-0.4-0.2-0.8-0.6-1.1C54.9,34.4,54.5,34.3,54,34.3z"/>
		</g>
		<g>
			<path class="st3" d="M77.6,18.8L77.6,18.8c0-0.6-0.9-0.6-0.9,0S77.6,19.3,77.6,18.8z"/>
		</g>
		<g>
			<path class="st3" d="M76.8,20.5c0.3,2.5,0.4,5.1,0.5,7.6c0.1,0.5,0.9,0.5,0.9-0.1c-0.1-2.5-0.2-5-0.5-7.6c0,0,0,0.1,0,0l0,0
				C77.6,19.9,76.8,19.9,76.8,20.5z"/>
		</g>
		<g>
			<path class="st3" d="M94.5,22.9c0.5,0.7,0.5,1.8,0.4,2.6c-0.1,1-0.4,1.9-0.8,2.8c-0.2,0.5,0.6,0.9,0.8,0.4c0.5-1,0.8-2.1,0.9-3.2
				s0.1-2.2-0.6-3.1C94.9,22,94.2,22.5,94.5,22.9z"/>
		</g>
		<g>
			<path class="st3" d="M65.8,13.8c1.6,0,3.2-0.1,4.8-0.1c0.2,0,0.4-0.3,0.4-0.5c-0.1-0.3-0.3-0.4-0.5-0.4c-1.6,0-3.2,0.1-4.8,0.1
				c-0.3,0-0.5,0.2-0.4,0.5C65.4,13.7,65.6,13.8,65.8,13.8z"/>
		</g>
		<g>
			<path class="st3" d="M55.1,61.5c-6.3,0-22-0.7-29.1-4.4c-0.4-0.2-0.8-0.8-0.8-5.9l0-1.8c-1.8-1.4-3.3-3-4.9-4.8
				c-3.1-3.8-5.6-7.9-8.3-12.5c-1.4-2.3-2.6-4.7-3.8-6.9l-0.2-0.4c-0.2-0.4-0.4-0.8-0.6-1.3c-0.2-0.3-0.5-0.5-1.1-0.7
				c-1.2-0.4-2.5-1-3.5-1.8c-0.1-0.1-0.2-0.2-0.3-0.4c-0.1-0.2-0.2-0.4-0.1-0.6c0.1-0.3,0.3-0.5,0.5-0.5l8.3-4.6
				c0.4-0.2,1-0.2,1.3,0.3c2.1,2.6,4.5,5.1,7.6,7.9c1.3,1.2,2.8,2.4,4.2,3.4l0.1,0.1c0.5,0.3,1,0.6,1.7,0.7
				c0.3-4.7,0.9-8.6,1.7-10.7c0.6-1.7,2.1-2.4,5-2.2l0.2,0c0-0.3,0-0.6,0-0.9c0-0.2,0-0.3,0-0.5c0-0.6,0-1.3,0.1-1.9
				C33.6,9,35.9,9,37.2,9l11-0.3c0.5-0.1,0.9-0.1,1.4-0.1c-0.1-0.8-0.3-2.1-0.4-2.7c-0.1-0.3-0.1-0.6-0.2-1
				c-0.2-0.8-0.4-1.6-0.4-2.5c0-1.5,2.6-1.8,3.5-2c1.6-0.3,3.5-0.3,5.1,0.1c0.2,0,1.6,0.3,2.1,1.1c0.4,0.6-0.6,5-1.1,6.7
				c2.9-0.1,6,0,9.7,0.2c0.4,0.1,0.8,0.1,1.3,0.1c0.4,0,0.9,0.1,1.3,0.1c0,0,0,0,0,0c0.6,0,1.2,0.1,1.9,0.3c1.5,0.6,1.6,2.2,1.7,3.3
				l0,0.1c0.1,0.5,0.2,1.2,0.2,1.8c3.8,0.3,5.4,1.2,5.8,3.2c0,0.4,0.1,0.7,0.1,1.1c0.2,0,0.4-0.1,0.7-0.1c0.3,0,0.6-0.1,0.9-0.1
				c0.5-0.1,1.1-0.2,1.6-0.3c1.6-0.3,3.3-0.6,5-0.8c1.7-0.2,4-0.3,5.9,0.8c1.7,0.8,2.9,2.3,3.5,4.3c0.5,2,0.4,4.2-0.2,6.3
				c-1.2,4.1-4.2,7.3-6.7,9.9c-1.4,1.6-2.9,3.1-4.5,4.5c-1.1,0.9-2.2,1.8-3.6,2.4c0,0.7,0.1,1.5,0.1,2.2c0,0.8,0,1.7,0.1,2.5
				c0,0.2,0,0.6,0,1c0.2,3.6,0.1,5.8-0.8,6.5c-0.4,0.3-1,0.5-1.5,0.6c-0.2,0-0.3,0.1-0.5,0.1L78,59.1c-6.1,1.6-16.7,2.3-21.9,2.4
				C55.8,61.5,55.4,61.5,55.1,61.5z M26.5,56.3c7.4,3.7,24.3,4.3,29.6,4.2c5.2-0.1,15.7-0.8,21.7-2.4l2.1-0.6c0.1,0,0.3-0.1,0.5-0.1
				c0.4-0.1,0.8-0.2,1.1-0.5c0.7-0.5,0.5-4.4,0.5-5.7c0-0.4,0-0.8,0-1c0-0.8-0.1-1.7-0.1-2.5c0-0.8,0-1.7-0.1-2.5l0-0.4l0.3-0.1
				c1.4-0.6,2.6-1.5,3.7-2.4c1.6-1.4,3.1-2.9,4.4-4.4c2.4-2.5,5.4-5.6,6.5-9.5c0.6-1.9,0.7-4,0.2-5.7c-0.5-1.8-1.5-3-2.9-3.7l0,0
				c-1.7-0.9-3.7-0.8-5.3-0.6c-1.6,0.1-3.3,0.5-4.9,0.8c-0.6,0.1-1.1,0.2-1.7,0.3c-0.3,0.1-0.6,0.1-1,0.2c-0.3,0-0.6,0.1-0.9,0.1
				l-0.7,0l-0.1-0.4c-0.1-0.5-0.2-1.1-0.2-1.6c-0.2-1.2-1.2-2-5.3-2.3l-0.5,0v-0.5c0-0.7-0.1-1.5-0.2-2.1l0-0.1
				c-0.1-1.1-0.3-2.1-1.1-2.5c-0.5-0.2-1.1-0.3-1.6-0.3c-0.5-0.1-0.9-0.1-1.3-0.1c-0.4,0-0.9-0.1-1.3-0.1c-3.9-0.2-7.2-0.3-10.2-0.2
				l-0.7,0l0.3-0.7c0.3-0.9,1.4-5.8,1.3-6.6c-0.2-0.3-0.8-0.5-1.4-0.6c-1.5-0.4-3.2-0.4-4.7-0.1c-2.6,0.3-2.7,0.9-2.7,1
				c-0.1,0.8,0.1,1.5,0.3,2.2C50,5,50.1,5.3,50.2,5.7c0.1,0.9,0.4,2.8,0.5,3.3l0.1,0.6h-0.6c-0.7,0-1.3,0-1.9,0.1L37.2,10
				c-1.4,0-2.9,0.1-3.1,1.1C34,11.6,34,12.2,34,12.7c0,0.2,0,0.4,0,0.6c0,0.5,0,1-0.1,1.5l-0.1,0.4h-1.1c-3.2-0.2-3.7,0.7-4,1.6
				c-0.7,2.1-1.4,6.2-1.7,11l0,0.5h-0.5c-1.1,0-1.9-0.5-2.6-0.9l-0.1-0.1c-1.5-1-3-2.2-4.4-3.5c-3.2-2.8-5.6-5.4-7.7-8l-8.2,4.5
				c0.9,0.6,2,1.2,3.2,1.5c0.5,0.2,1.3,0.4,1.7,1.3c0.2,0.5,0.4,0.8,0.6,1.3L9,24.8c1.2,2.2,2.4,4.6,3.8,6.9
				c2.7,4.5,5.2,8.6,8.3,12.3c1.6,1.9,3.1,3.4,4.9,4.8l0.2,0.2l0,2.3C26.2,55.1,26.4,56.1,26.5,56.3z M26.5,56.3L26.5,56.3
				L26.5,56.3z M26.4,56.3C26.4,56.3,26.4,56.3,26.4,56.3C26.4,56.3,26.4,56.3,26.4,56.3z M3.4,20.4L3.4,20.4L3.4,20.4z M3.3,20
				L3.3,20C3.3,20,3.3,20,3.3,20z M54.3,43.9c-0.9,0-1.4-0.7-1.7-1.1c-0.5-0.4-1-1-1.6-1.5c-0.5-0.5-1.1-1-1.6-1.5
				c-0.3-0.2-0.6-0.5-0.9-0.8c-0.3-0.3-0.5-0.5-0.8-0.8c-0.1-0.1-0.2-0.2-0.3-0.3c-0.3-0.3-0.7-0.7-1-1.1c-0.2-0.2-0.2-0.4-0.2-0.6
				c0-0.1,0-0.2,0-0.3c0-0.2,0.1-0.4,0.3-0.5c1-1.3,2.1-2.5,3.2-3.7c0.2-0.3,0.5-0.6,0.8-0.9c0.3-0.3,0.5-0.5,0.8-0.8
				c0.2-0.2,0.4-0.4,0.5-0.5c0.3-0.4,0.7-0.7,1.1-1c1.3-0.9,2.3,0.3,3,1c0.1,0.2,0.3,0.3,0.4,0.4c1,1.1,2,2.2,3,3.2l1.7,1.7
				c0.3,0.3,0.7,0.7,0.7,1.3l0,0.1c-0.1,0.5-0.6,0.9-1,1.3l-0.2,0.2c-0.2,0.2-0.5,0.5-0.7,0.8c-0.2,0.3-0.5,0.6-0.7,0.8l-3,3.3
				c-0.1,0.1-0.2,0.2-0.2,0.3C55.5,43.4,55,43.9,54.3,43.9z M47.3,36.4c0.2,0.3,0.5,0.5,0.7,0.8c0.1,0.1,0.2,0.2,0.3,0.3
				c0.3,0.2,0.6,0.5,0.9,0.8c0.3,0.3,0.5,0.5,0.8,0.8c0.6,0.5,1.1,1,1.7,1.6c0.5,0.5,1.1,1,1.6,1.5c0.3,0.4,0.6,0.8,1,0.8
				c0.3,0,0.5-0.3,0.8-0.6c0.1-0.1,0.2-0.2,0.3-0.3l3-3.3c0.3-0.3,0.5-0.5,0.7-0.8c0.2-0.3,0.5-0.6,0.7-0.8l0.3-0.3
				c0.2-0.2,0.6-0.6,0.7-0.8c0-0.2-0.2-0.3-0.4-0.5l-1.7-1.7c-1-1-2-2.1-3-3.2c-0.1-0.1-0.3-0.3-0.4-0.5c-0.8-0.9-1.2-1.2-1.6-0.9
				c-0.3,0.2-0.6,0.6-0.9,0.9c-0.2,0.2-0.3,0.4-0.5,0.5c-0.2,0.3-0.5,0.6-0.8,0.9c-0.3,0.3-0.5,0.5-0.8,0.8
				c-1.1,1.2-2.2,2.4-3.1,3.6c0,0-0.1,0.1-0.1,0.2C47.3,36.2,47.3,36.4,47.3,36.4z M35.6,43.3c-0.6,0-1-0.4-1.3-0.7
				c-0.1-0.1-0.2-0.2-0.3-0.3c-0.6-0.6-1.1-1.2-1.6-1.7c-0.5-0.6-1.1-1.1-1.6-1.7c-0.3-0.3-0.5-0.6-0.8-0.8
				c-0.3-0.3-0.6-0.6-0.8-0.9c-0.4-0.4-0.8-0.9-1.1-1.4c-0.2-0.2-0.2-0.5-0.1-0.8v-0.1c0-0.3,0.1-0.4,0.2-0.6
				c1.1-1.2,2.2-2.4,3.4-3.6c0.3-0.3,0.6-0.5,0.9-0.8c0.3-0.3,0.6-0.6,0.9-0.8l0.3-0.3c0.4-0.4,0.9-0.9,1.4-1.2
				c1.4-0.8,2.3,0.5,2.9,1.2c0.1,0.1,0.2,0.3,0.3,0.4c0.5,0.6,0.9,1.1,1.4,1.7c0.5,0.6,0.9,1.1,1.4,1.7c0.2,0.3,0.5,0.6,0.7,0.8
				c0.3,0.3,0.5,0.6,0.8,0.9c0.1,0.1,0.1,0.2,0.2,0.2c0.2,0.3,0.6,0.7,0.4,1.3c-0.1,0.6-0.6,1.1-1,1.4c-0.1,0.1-0.2,0.2-0.3,0.2h0
				l-1.5,1.5c-0.5,0.5-1,1.1-1.5,1.6c-0.5,0.5-1,1-1.5,1.6l-0.2,0.2C36.8,42.8,36.3,43.3,35.6,43.3z M29,35.3c0.3,0.4,0.6,0.9,1,1.3
				c0.3,0.3,0.5,0.6,0.8,0.8c0.3,0.3,0.6,0.6,0.8,0.9c0.5,0.5,1,1.1,1.5,1.6c0.5,0.6,1.1,1.1,1.6,1.7c0.1,0,0.2,0.2,0.3,0.3
				c0.6,0.6,0.9,0.4,1.5-0.2l0.2-0.2c0.5-0.5,1-1.1,1.6-1.6c0.5-0.5,1-1,1.5-1.6l1.5-1.5c0.1-0.1,0.2-0.2,0.3-0.3
				c0.3-0.3,0.6-0.5,0.7-0.8c0-0.2,0-0.3-0.2-0.5c-0.1-0.1-0.1-0.2-0.2-0.3c-0.2-0.3-0.5-0.5-0.7-0.8c-0.3-0.3-0.5-0.6-0.8-0.9
				c-0.4-0.5-0.9-1.1-1.4-1.7c-0.5-0.6-1-1.2-1.4-1.7c-0.1-0.1-0.2-0.3-0.3-0.4c-0.7-0.9-1.1-1.3-1.6-1c-0.4,0.2-0.8,0.6-1.2,1
				l-0.3,0.3c-0.3,0.3-0.6,0.5-0.9,0.8c-0.3,0.3-0.6,0.6-0.9,0.8c-1.1,1.2-2.3,2.4-3.3,3.5L29,35.3z M73.5,43.3
				c-0.7,0-1.2-0.4-1.5-0.7c-0.1-0.1-0.2-0.1-0.3-0.2l-5.4-4.5c-0.5-0.4-0.9-0.7-1.2-1.2c-0.1-0.2-0.2-0.3-0.2-0.4
				c-0.1-0.1-0.1-0.2-0.1-0.4c0-0.2,0.1-0.4,0.2-0.5c0.8-1.2,1.8-2.5,2.9-3.9l1.7-2.1c0.4-0.5,0.8-1,1.2-1.4c1.3-1,2.4,0.2,3.1,0.9
				c0.1,0.1,0.2,0.2,0.3,0.3c0.5,0.5,1.1,1,1.6,1.5c0.5,0.5,1,1,1.6,1.5c0.3,0.2,0.6,0.5,0.9,0.8c0.3,0.2,0.5,0.5,0.8,0.7
				c0.1,0.1,0.1,0.1,0.2,0.2c0.3,0.3,0.8,0.7,0.7,1.3c0,0.4-0.3,0.9-0.7,1.3c-0.1,0.1-0.2,0.2-0.2,0.3c-0.2,0.3-0.4,0.6-0.7,0.9
				c-0.2,0.3-0.4,0.5-0.6,0.8c-0.9,1.2-1.8,2.4-2.7,3.5L75,42.1C74.7,42.5,74.2,43.2,73.5,43.3C73.5,43.3,73.5,43.3,73.5,43.3z
				 M65.9,36.1L65.9,36.1c0.3,0.4,0.6,0.7,1,1l1.9,1.6l3.5,2.9c0.1,0.1,0.2,0.1,0.3,0.2c0.3,0.2,0.5,0.4,0.8,0.4
				c0.3-0.1,0.6-0.5,0.8-0.8l0.1-0.1c0.9-1.1,1.8-2.3,2.7-3.5c0.2-0.3,0.4-0.6,0.7-0.9c0.2-0.3,0.4-0.5,0.6-0.8l0,0
				c0.1-0.1,0.2-0.2,0.3-0.3c0.1-0.2,0.4-0.5,0.4-0.6l0,0l0-0.1c0-0.1-0.1-0.2-0.3-0.5c-0.1-0.1-0.1-0.1-0.2-0.2
				c-0.3-0.2-0.5-0.5-0.8-0.7c-0.3-0.2-0.5-0.5-0.8-0.7c-0.6-0.5-1.1-1-1.6-1.5c-0.5-0.5-1-1-1.6-1.5c-0.1-0.1-0.2-0.2-0.3-0.4
				c-0.8-0.9-1.2-1.2-1.7-0.8c-0.3,0.3-0.7,0.8-1.1,1.2l-0.2,0.3l-1.5,1.8c-1.1,1.3-2,2.6-2.8,3.8l0,0V36.1z M81.4,40.7l-0.1-1.1
				c-0.1-1.5-0.2-3.1-0.3-4.6c-0.1-1.6-0.3-3.1-0.4-4.7c0.4-2.9,1.6-5.1,3.4-6.4c1.2-0.8,2.7-1.2,4-0.9c1.2,0.2,2.3,1,3,2
				c1.7,2.5,0.6,5.6-0.8,7.6c-1.6,2.3-3.8,4-5.9,5.7c-0.3,0.3-0.6,0.5-1,0.8c-0.3,0.2-0.6,0.5-0.9,0.7c-0.1,0.1-0.2,0.1-0.2,0.2
				L81.4,40.7z M87.1,23.9c-0.9,0-1.7,0.3-2.5,0.8c-2,1.4-2.8,3.9-3,5.7c0.1,1.5,0.2,3,0.4,4.5c0.1,1.2,0.2,2.5,0.3,3.7
				c0.2-0.1,0.3-0.3,0.5-0.4c0.3-0.2,0.6-0.5,0.9-0.7c2-1.7,4.2-3.4,5.7-5.5l0,0c1.2-1.7,2.2-4.4,0.8-6.4c-0.7-1.1-1.6-1.5-2.3-1.6
				C87.6,23.9,87.3,23.9,87.1,23.9z"/>
		</g>
		<g>
			<path class="st3" d="M35.4,37.7c-0.5,0-1-0.1-1.5-0.4c-0.7-0.4-0.9-1.3-1-1.8c-0.1-0.8,0-1.5,0.5-2.1l0,0c1-1,3-1.1,4-0.2
				c0.6,0.6,0.9,1.2,0.9,1.9c0,0.8-0.4,1.5-1,2c-0.3,0.3-0.8,0.6-1.4,0.7C35.7,37.7,35.6,37.7,35.4,37.7z M34.2,34
				c-0.3,0.3-0.4,0.8-0.3,1.3c0.1,0.6,0.3,1,0.6,1.2c0.4,0.2,0.9,0.3,1.2,0.2c0.4-0.1,0.7-0.2,0.9-0.5c0.4-0.3,0.7-0.8,0.7-1.2
				c0-0.4-0.2-0.8-0.6-1.1C36.2,33.3,34.8,33.4,34.2,34z"/>
		</g>
		<g>
			<path class="st3" d="M53.8,38.5c-0.5,0-1-0.1-1.5-0.4c-0.7-0.4-0.9-1.3-1-1.8c-0.1-0.8,0-1.5,0.5-2.1l0,0c1-1,2.9-1.1,4-0.2
				c0.6,0.6,0.9,1.2,0.9,1.9c0,0.8-0.4,1.5-1,2c-0.3,0.3-0.8,0.6-1.4,0.7C54.1,38.5,54,38.5,53.8,38.5z M52.6,34.8
				c-0.3,0.3-0.4,0.8-0.3,1.3c0.1,0.6,0.3,1,0.6,1.2c0.4,0.2,0.9,0.3,1.2,0.2c0.4-0.1,0.7-0.2,0.9-0.5c0.4-0.3,0.7-0.8,0.7-1.2
				c0-0.4-0.2-0.8-0.6-1.1C54.6,34.2,53.3,34.1,52.6,34.8z"/>
		</g>
		<g>
			<path class="st3" d="M72.5,37.9c-0.5,0-1-0.1-1.5-0.4c-0.7-0.4-0.9-1.3-1-1.8c-0.1-0.8,0-1.5,0.5-2.1l0,0c1-1,2.9-1.1,4-0.2
				c0.6,0.6,0.9,1.2,0.9,1.9c0,0.8-0.4,1.5-1,2c-0.3,0.3-0.8,0.6-1.4,0.7C72.8,37.9,72.7,37.9,72.5,37.9z M71.3,34.2
				C71,34.6,70.9,35,71,35.5c0.1,0.6,0.3,1,0.6,1.2c0.4,0.2,0.9,0.3,1.2,0.2c0.4-0.1,0.7-0.2,0.9-0.5c0.4-0.3,0.7-0.8,0.7-1.2
				c0-0.4-0.2-0.8-0.6-1.1C73.3,33.6,72,33.5,71.3,34.2z"/>
		</g>
		<g>
			<path class="st3" d="M23.5,42.1c-1.1-0.6-2.2-2.1-3-3.2c-0.9-1.4-1.6-2.8-2.2-4.2c-0.4-0.8-1.4-0.8-1,0c0.6,1.6,1.5,3.3,2.6,4.8
				c1,1.5,2.2,3,3.6,3.7C24.1,43.5,24.1,42.4,23.5,42.1z"/>
		</g>
	</g>
</g>
<ellipse class="st3" cx="35.9" cy="35.4" rx="2" ry="2.1"/>
<ellipse class="st3" cx="34.9" cy="35.4" rx="2" ry="2.1"/>
<ellipse class="st3" cx="35.6" cy="35.1" rx="2" ry="2.1"/>
<ellipse class="st3" cx="54" cy="35.9" rx="2" ry="2.1"/>
<ellipse class="st3" cx="72.7" cy="35.4" rx="2" ry="2.1"/>
</svg>
