<?xml version="1.0" encoding="utf-8"?>
<!-- Generator: Adobe Illustrator 24.0.0, SVG Export Plug-In . SVG Version: 6.00 Build 0)  -->
<svg version="1.1" id="Layer_1" xmlns="http://www.w3.org/2000/svg" xmlns:xlink="http://www.w3.org/1999/xlink" x="0px" y="0px"
	 viewBox="0 0 100 125" style="enable-background:new 0 0 100 125;" xml:space="preserve">
<title>Noun_Project_50Icon_5px_grid - thee iconen hand drawn samengesteld pad</title>
<path d="M42.5,39.1c1.9,0.2,1.9,3.2,0,3c-3.1-0.2-6.1-0.3-9.2-0.2c-1.9,0.1-1.9-2.9,0-3C36.3,38.8,39.4,38.8,42.5,39.1z M78.4,41.4
	c0,0.2-0.1,0.5-0.2,0.7c-1.2,2-2,4.1-2.4,6.4c-0.3,1.6-0.6,3.6-1.7,4.8c-1,1.1-1.8,0.8-3.2,0.4c-2.4-0.6-4.8-1.4-7.2-2
	c-0.8-0.2-1.3-1.1-1-1.8c1.2-2.9,2.4-5.8,3.5-8.7c0.5-1.3,0.6-3.4,2.1-4.1c0.7-0.3,1.6-0.2,2.3,0.2c0.2-3.7,0.6-8.1-1.4-11.2
	c-1.8-2.8-6.3-5.6-9.3-6.6c-9.8-3.2-18.2,5-20.1,14c1.8-0.2,3.6-0.1,5.4,0.3c3.2,0.8,7.5,4.6,9.9,7.3c0.4,0.2,0.6,0.6,0.6,1
	c0.8,6,0.4,11.5-0.1,17.5c-0.7,7.8,0.6,15.5,0.2,23.3c0,0.1,0,0.1,0,0.2c0,0.6-0.5,1.1-1.1,1.2c-10.2,2.2-20.8,0.4-31.2,1
	c-0.6,0.1-1.1-0.2-1.3-0.8c-0.1-0.1-0.1-0.2-0.1-0.3c-0.9-3.3-0.5-5.3-0.5-8.7c0-3.6-0.3-7.1-0.3-10.7c0-7.2-1-14.7-0.4-21.9
	c0-0.1,0-0.3,0.1-0.4c0.1-0.2,0.2-0.5,0.4-0.6c1.6-1.7,3.4-3.3,5.4-4.7c1.4-1.1,2.9-3,4.6-3.5c1.4-0.5,3.6-0.2,5.3-0.1
	c1.7-10.6,11.4-19.6,22.5-17.2c4.6,1,8.7,3.6,11.7,7.2c3.3,4.2,2.6,9.9,2.5,14.9c1.5,0.5,2.9,1.2,4.3,1.8
	C78.2,40.2,78.5,40.8,78.4,41.4z M37.3,36.4c-1.3,0-3.4-0.5-4.7-0.1c-2.9,0.8-6.8,4.7-8.9,7c-0.4,6.4,0.5,12.9,0.4,19.4
	c0,3.5,0.1,7,0.2,10.5c0.1,2.9-0.4,5.9,0.2,8.8c9.4-0.3,18.9,1.1,28.1-0.6c0.1-6.7-0.8-13.4-0.4-20.1c0.3-6.2,1.2-12.1,0.4-18.4
	c-2-2.2-6-5.7-8.5-6.3C42,36.1,39.4,36.4,37.3,36.4z M74.8,42c-1.1-0.5-2.3-1-3.5-1.3c-0.6-0.1-1.2-0.2-1.8-0.5
	c-0.6,3-2.2,6.1-3.5,9l4.1,1.2c0.4,0.1,1.6,0.7,1.9,0.5s0.6-1.9,0.7-2.5C73.1,46.2,73.8,44,74.8,42z"/>
</svg>
