<?xml version="1.0" encoding="utf-8"?>
<!-- Generator: Adobe Illustrator 24.0.0, SVG Export Plug-In . SVG Version: 6.00 Build 0)  -->
<svg version="1.1" id="Layer_1" xmlns="http://www.w3.org/2000/svg" xmlns:xlink="http://www.w3.org/1999/xlink" x="0px" y="0px"
	 viewBox="0 0 100 125" style="enable-background:new 0 0 100 125;" xml:space="preserve">
<title>Noun_Project_50Icon_5px_grid - thee iconen hand drawn samengesteld pad</title>
<path d="M76.8,64.2C76.7,64.2,76.7,64.2,76.8,64.2c0.3-0.5,0.2-1.1-0.2-1.5c-2.4-3.9-4.8-7.8-7.2-11.7c-0.1-0.1-0.1-0.2-0.2-0.3
	c0.8-2.1,3-5.1,1.3-7.1c-0.9-1-2-1.7-3.3-2.2c1-2.9,1.4-6,1.2-9.1c-0.2-3.2-1.6-6.3-3.9-8.5c-4.4-4.2-12.4-3.8-14.7,2.1v0
	c-4.4,4.8-8.8,9.3-12.1,15c-4.1,7.1-8.7,13.8-13.8,20.2c-0.6,0.6-0.6,1.6,0.1,2.1c0.2,0.2,0.4,0.3,0.6,0.4c7.5,2.9,15.4,8,20.4,14.3
	l0,0c0.1,0.1,0.2,0.2,0.3,0.2c0.3,0.2,0.7,0.3,1,0.2h0.2c6.2-1.9,12.2-4.1,18.2-6.7c3.7-1.7,9.6-3.9,12.1-7.3l0,0L76.8,64.2
	C76.7,64.2,76.7,64.2,76.8,64.2z M67.5,45.1c0.8,1.3-1.1,4.3-1.5,5.6c-0.3,1-0.6,2-0.9,3c-0.4,1.5-0.4,1.2-1.9,0.7l-5.1-1.9
	c1.3-3.3,2.9-6.5,4.6-9.6C64.3,43.3,66.9,44.1,67.5,45.1z M64.6,29c0.7,1.7,1,3.6,0.9,5.5c-0.1,2-0.4,3.9-1,5.8
	c-0.8-0.3-1.5-0.5-2.2-0.8c-0.4-0.2-0.9-0.1-1.3,0.2c-3.2-4.1-6-8.4-8.4-13C55.1,21,62.7,24.9,64.6,29z M27.3,61.7
	c4-5.1,7.7-10.4,11.1-16c1.6-2.9,3.3-5.8,5.3-8.5c1.6-2.1,3.4-4,5.2-5.9c-0.5,1.6-1,3.3-1.3,5c-0.8,4.2-0.3,8.8-0.4,13
	c-0.3,8.1-1.2,16.1-2.2,24.2C39.9,68.4,33.9,64.4,27.3,61.7z M62.2,69.4c-4.7,2.1-9.6,3.9-14.5,5.4c1.1-8.5,2.1-17,2.4-25.5
	c0.2-4.7-0.5-9.8,0.8-14.4c0.3-1.2,0.7-2.3,1-3.5c2.3,3.8,4.7,7.4,7.5,10.9l0.1,0.1c-1.8,3.4-3.4,6.9-4.8,10.4
	c-0.2,0.8,0.3,1.6,1,1.8l5.7,2.1c1.2,0.4,2.8,1.3,4.1,1.1s2.2-1.7,2.7-3.3c1.8,2.9,3.6,5.8,5.4,8.7c-1.3,0.8-2.6,1.6-4,2.2
	C67.1,66.9,64.8,68.3,62.2,69.4z"/>
</svg>
