<?xml version="1.0" encoding="utf-8"?>
<!-- Generator: Adobe Illustrator 24.0.0, SVG Export Plug-In . SVG Version: 6.00 Build 0)  -->
<svg version="1.1" xmlns="http://www.w3.org/2000/svg" xmlns:xlink="http://www.w3.org/1999/xlink" x="0px" y="0px"
	 viewBox="0 0 89.2 94.1" style="enable-background:new 0 0 89.2 94.1;" xml:space="preserve">
<style type="text/css">
	.st0{display:none;}
	.st1{display:inline;}
	.st2{fill:#FFFFFF;}
</style>
<g id="Layer_2" class="st0">
	<rect x="-45.4" y="-2.2" class="st1" width="175.5" height="110"/>
</g>
<g id="Layer_1">
	<g>
		<path class="st2" d="M48.1,84.6c0,2.4,1.9,4.3,4.3,4.3s4.3-1.9,4.3-4.3s-1.9-4.3-4.3-4.3S48.1,82.2,48.1,84.6z"/>
		<path class="st2" d="M48.1,65c0,2.4,1.9,4.3,4.3,4.3s4.3-1.9,4.3-4.3c0-2.4-1.9-4.3-4.3-4.3S48.1,62.6,48.1,65z"/>
		<path class="st2" d="M48.1,46.5c0,2.4,1.9,4.3,4.3,4.3s4.3-1.9,4.3-4.3c0-2.4-1.9-4.3-4.3-4.3S48.1,44.1,48.1,46.5z"/>
		<path class="st2" d="M67.7,73.7c0,2.4,1.9,4.3,4.3,4.3c2.4,0,4.3-1.9,4.3-4.3s-1.9-4.3-4.3-4.3C69.6,69.4,67.7,71.3,67.7,73.7z"/>
		<path class="st2" d="M67.7,54.1c0,2.4,1.9,4.3,4.3,4.3c2.4,0,4.3-1.9,4.3-4.3c0-2.4-1.9-4.3-4.3-4.3
			C69.6,49.8,67.7,51.8,67.7,54.1z"/>
		<path class="st2" d="M28.5,73.7c0,2.4,1.9,4.3,4.3,4.3s4.3-1.9,4.3-4.3s-1.9-4.3-4.3-4.3S28.5,71.3,28.5,73.7z"/>
		<path class="st2" d="M32.8,49.8c-2.4,0-4.3,1.9-4.3,4.3c0,2.4,1.9,4.3,4.3,4.3s4.3-1.9,4.3-4.3S35.2,49.8,32.8,49.8z"/>
		<path class="st2" d="M21.1,56.3c-2.7-4.9-6.5-8.9-10.3-12.9c0.6,2.8,2.3,5.2,4,7.4C16.6,52.9,18.7,54.8,21.1,56.3z"/>
		<path class="st2" d="M2.7,39.3L2.8,40c0.3,1.2,6.3,27.5,18.5,36.9c-0.2,7.6,0.5,13.4,0.6,13.9l0.1,0.9l30.8-0.2l31.5,0.2l0.1-0.9
			c0.2-1.3,4-31.6-9.1-48.3c2.6-4.1,4-8.9,4-14.1c0-14.8-12-26.8-26.8-26.8c-14.8,0-26.8,12-26.8,26.8c0,5.4,1.6,10.5,4.4,14.7
			c-1.9,2.7-3.5,5.7-4.7,8.8c-3.2-1.5-9.8-5.6-14.7-16.6l-0.5-1.1L2.7,39.3z M74,41c-0.2-0.2-0.4-0.5-0.6-0.7c0-0.2,0.1-0.5,0.1-0.7
			c0-7.1-8.1-12.9-18.5-13.5c1.1-0.8,1.8-2,1.8-3.5c0-2.4-1.9-4.3-4.3-4.3s-4.3,1.9-4.3,4.3c0,1.5,0.8,2.8,1.9,3.6
			c-9.7,1-17.2,6.6-17.2,13.4c0,0.2,0,0.4,0,0.6c-0.4,0.4-0.8,0.9-1.2,1.3c-2.4-3.8-3.7-8.2-3.7-13C27.9,14.9,39,3.8,52.7,3.8
			c13.6,0,24.8,11.1,24.8,24.8C77.4,33.1,76.2,37.3,74,41z M71.4,39.6C71.4,39.6,71.4,39.6,71.4,39.6l-36.6,0.1c0,0,0,0,0-0.1
			C34.8,33.2,43,28,53.1,28C63.2,28,71.4,33.2,71.4,39.6z M34.2,41.6h37.7c13.4,13.9,11.2,42.7,10.7,48.1l-29.7-0.2l-29,0.2
			C23.3,84.3,21.1,55.5,34.2,41.6z M5.8,43.5l5.3-3.4C16,49,21.9,52.6,25,53.9c-2.3,6.8-3.2,14.1-3.5,20.5
			C13.2,67,7.9,50.9,5.8,43.5z M5,40.2l4.7-3c0.3,0.7,0.6,1.3,1,1.9l-5.1,3.3C5.3,41.5,5.1,40.7,5,40.2z"/>
		<path class="st2" d="M65.4,32.4c-1.8-1.3-4-1.7-6.2-1.2c2.2,1.5,5.2,2.1,6.4,4.5c0.3,0.7,0.2,1.7,0,2.7
			C67.8,37,67.5,33.8,65.4,32.4z"/>
	</g>
</g>
</svg>
