<?xml version="1.0" encoding="utf-8"?>
<!-- Generator: Adobe Illustrator 24.0.0, SVG Export Plug-In . SVG Version: 6.00 Build 0)  -->
<svg version="1.1" id="Layer_1" xmlns="http://www.w3.org/2000/svg" xmlns:xlink="http://www.w3.org/1999/xlink" x="0px" y="0px"
	 viewBox="0 0 100 61.8" style="enable-background:new 0 0 100 61.8;" xml:space="preserve">
<style type="text/css">
	.st0{display:none;}
	.st1{display:inline;}
	.st2{fill:#FFFFFF;}
</style>
<g id="Layer_2_1_" class="st0">
	<rect class="st1" width="100" height="61.8"/>
</g>
<g id="Layer_1_1_">
	<g>
		<path class="st2" d="M94.1,18.4c-1.7-0.9-3.7-0.9-5.6-0.7c-2.2,0.2-4.4,0.7-6.6,1.1c-0.6,0.1-1.3,0.2-1.9,0.3c-0.1,0-0.1,0-0.2,0
			c-0.1-0.5-0.2-1-0.2-1.5c-0.3-1.6-1.6-2.5-5.8-2.8c0-0.7-0.1-1.5-0.2-2.2c-0.1-1-0.2-2.5-1.4-3c-0.6-0.2-1.2-0.3-1.8-0.3
			c-0.8-0.1-1.7-0.1-2.5-0.2C64.4,8.9,61,8.8,57.6,8.9c0.3-0.8,1.6-6.6,1.3-7c-0.3-0.5-1.2-0.8-1.8-0.9c-1.6-0.4-3.4-0.4-4.9-0.1
			c-0.8,0.1-3.1,0.4-3.1,1.5c-0.1,1.2,0.4,2.3,0.6,3.4c0.1,0.9,0.4,2.8,0.5,3.3c-0.7,0-1.3,0-2,0.1c-3.7,0.1-7.3,0.2-11,0.3
			c-1.2,0-3.2,0-3.6,1.5c-0.2,0.7-0.1,1.6-0.1,2.3c0,0.5,0,0.9-0.1,1.4c-0.3,0-0.6,0-0.7,0c-3.2-0.2-4.1,0.7-4.5,1.9
			c-0.8,2.3-1.4,6.6-1.7,11.1c-1,0-1.8-0.5-2.5-0.9c-1.5-1-3-2.2-4.3-3.4c-2.8-2.5-5.4-5.1-7.7-8c-0.1-0.2-0.4-0.2-0.6-0.1L3,19.9
			c-0.3,0.1-0.2,0.4-0.1,0.5c0,0.1,0.1,0.2,0.1,0.2c1,0.7,2.2,1.3,3.4,1.7c0.6,0.2,1.1,0.4,1.4,1C8,23.9,8.3,24.4,8.6,25
			c1.2,2.3,2.4,4.6,3.8,6.9c2.5,4.2,5.1,8.5,8.3,12.4c1.5,1.8,3.1,3.4,5,4.9c0,0.6,0,1.2,0,1.8c0,0.7-0.1,5.4,0.5,5.7
			c7.3,3.7,23.8,4.4,29.9,4.3c5.9-0.1,16.1-0.9,21.8-2.4c0.7-0.2,1.4-0.4,2.1-0.6c0.6-0.2,1.3-0.3,1.8-0.7c1.1-0.8,0.6-5.9,0.6-7.1
			c-0.1-1.7-0.1-3.4-0.2-5.1c1.4-0.6,2.6-1.5,3.8-2.5c1.6-1.4,3.1-2.9,4.5-4.5c2.7-2.8,5.5-5.8,6.6-9.7c0.6-1.9,0.7-4.1,0.2-6
			C96.8,20.6,95.8,19.2,94.1,18.4z M57.8,5.8c-0.1,0.8-0.2,1.6-0.4,2.4c0,0.2-0.3,0.4-0.5,0.4s-0.4-0.3-0.4-0.5
			c0.1-0.8,0.3-1.6,0.4-2.4c0-0.2,0.3-0.4,0.5-0.4C57.7,5.3,57.9,5.6,57.8,5.8z M58.2,4.2c0,0.1,0,0.2,0,0.2l-0.1,0.1
			c0,0.1-0.1,0.1-0.2,0.1h-0.1c-0.1,0-0.1,0-0.2,0s-0.1,0-0.1-0.1l-0.1-0.1c0,0,0-0.1-0.1-0.2V3.8c0-0.1,0-0.2,0-0.2l0.1-0.1
			c0-0.1,0.1-0.1,0.2-0.1h0.1c0.1,0,0.1,0,0.2,0c0.1,0,0.1,0,0.1,0.1l0.1,0.1c0,0,0,0.1,0.1,0.2V4.2z M15.2,34.9
			c-1-1.5-1.9-3.1-2.7-4.6c-0.1-0.2-0.1-0.5,0.1-0.6c0.2-0.1,0.5-0.1,0.6,0.1c0.9,1.6,1.8,3.1,2.7,4.6
			C16.2,34.9,15.5,35.3,15.2,34.9z M17.8,38.3c-0.2,0.1-0.5,0.1-0.6-0.1c-0.3-0.5-0.6-1-0.9-1.5c-0.1-0.1,0-0.2,0-0.3
			s0.1-0.2,0.2-0.2s0.2,0,0.3,0c0.1,0.1,0.2,0.1,0.2,0.2c0,0.1,0.1,0.1,0.1,0.2c0.2,0.4,0.4,0.7,0.7,1.1
			C18.1,37.9,18,38.2,17.8,38.3z M78.7,20.4C78.7,20.4,78.7,20.5,78.7,20.4c0.3,2.6,0.4,5.1,0.5,7.6c0,0.6-0.8,0.6-0.9,0.1
			c-0.1-2.5-0.2-5.1-0.5-7.6C77.8,19.9,78.6,19.9,78.7,20.4L78.7,20.4z M77.7,18.8c0-0.6,0.9-0.6,0.9-0.1v0.1
			C78.6,19.3,77.7,19.4,77.7,18.8L77.7,18.8z M65.7,12.9c1.6,0,3.2-0.1,4.8-0.1c0.2,0,0.4,0.1,0.5,0.4c0,0.2-0.2,0.5-0.4,0.5
			c-1.6,0-3.2,0.1-4.8,0.1c-0.2,0-0.4-0.1-0.5-0.4S65.4,12.9,65.7,12.9z M63.5,13.2v-0.1c0-0.1,0.1-0.1,0.1-0.1l0.1-0.1
			c0.1,0,0.1,0,0.2,0c0.1,0,0.1,0,0.2,0c0.1,0,0.2,0.1,0.2,0.1c0.1,0,0.1,0.1,0.2,0.1l0.1,0.1c0,0.1,0,0.1,0,0.2v0.1
			c0,0.1-0.1,0.1-0.1,0.1l-0.1,0.1c-0.1,0-0.1,0-0.2,0s-0.1,0-0.2,0l-0.2-0.1c-0.1,0-0.1-0.1-0.2-0.1c0,0,0-0.1-0.1-0.1
			C63.5,13.3,63.5,13.3,63.5,13.2z M42.7,35.8c-0.1,0.6-0.7,1-1.1,1.4c-0.5,0.5-1,1-1.5,1.5c-1,1.1-2.1,2.1-3.1,3.2
			c-0.4,0.4-0.8,0.9-1.4,0.9c-0.6,0-0.9-0.6-1.3-0.9c-1-1.1-2.1-2.2-3.1-3.3c-0.5-0.6-1.1-1.1-1.6-1.7c-0.4-0.4-0.8-0.9-1.1-1.4
			c-0.1-0.1-0.1-0.2,0-0.4V35v-0.1c0-0.1,0-0.1,0.1-0.2c1.1-1.2,2.2-2.4,3.4-3.6c0.6-0.5,1.1-1.1,1.7-1.6c0.5-0.5,1-1.1,1.6-1.4
			c1.2-0.7,2,0.8,2.6,1.5c0.9,1.1,1.9,2.3,2.8,3.4c0.5,0.6,1,1.1,1.5,1.7C42.4,35,42.8,35.3,42.7,35.8z M60.1,37.5
			c-0.5,0.5-0.9,1.1-1.4,1.6c-1,1.1-2,2.2-3,3.3c-0.4,0.4-0.8,1-1.4,1s-1-0.5-1.3-0.9c-1.1-1-2.2-2.1-3.3-3.1
			c-0.6-0.5-1.1-1.1-1.7-1.6c-0.4-0.4-0.9-0.8-1.2-1.3c-0.1-0.1-0.1-0.2,0-0.3c-0.1-0.1-0.1-0.3,0.1-0.4c1-1.3,2.1-2.5,3.2-3.7
			c0.5-0.6,1.1-1.1,1.6-1.7c0.5-0.5,1-1.1,1.5-1.5c1.1-0.8,2,0.7,2.7,1.4c1,1.1,2,2.2,3,3.2c0.5,0.5,1.1,1.1,1.6,1.6
			c0.3,0.3,0.7,0.6,0.7,1.1C61.1,36.6,60.5,37.1,60.1,37.5z M78.7,36.5c-0.4,0.6-0.9,1.1-1.3,1.7c-0.9,1.2-1.8,2.4-2.7,3.5
			c-0.3,0.4-0.7,1-1.3,1.1c-0.6,0-1-0.5-1.4-0.8c-1.2-1-2.3-1.9-3.5-2.9c-0.6-0.5-1.2-1-1.8-1.5c-0.5-0.4-0.9-0.7-1.2-1.2
			c-0.1-0.1-0.1-0.2-0.1-0.3c-0.1-0.1-0.1-0.3,0-0.4c0.9-1.4,1.9-2.7,2.9-3.9c0.5-0.6,1-1.2,1.5-1.8c0.4-0.5,0.9-1.2,1.4-1.6
			c1.1-0.8,2,0.5,2.7,1.2c1.1,1,2.1,2,3.2,3c0.6,0.5,1.1,1,1.7,1.5c0.3,0.3,0.8,0.6,0.7,1.1C79.6,35.5,79,36.1,78.7,36.5z
			 M89.8,32.3c-1.6,2.2-3.7,3.9-5.8,5.6c-0.6,0.5-1.3,1-1.9,1.5c-0.1,0.1-0.2,0.1-0.3,0.2c-0.2-3.1-0.5-6.2-0.7-9.3
			c0.3-2.3,1.2-4.6,3.2-6s4.9-1.2,6.3,1C92.1,27.5,91.2,30.4,89.8,32.3z M94,30.4c0,0,0,0.1-0.1,0.1c-0.1,0.2-0.2,0.4-0.3,0.6v0.1
			c0,0.1-0.1,0.2-0.2,0.3c-0.1,0.1-0.2,0.1-0.3,0.1c-0.1,0-0.2-0.1-0.3-0.2c-0.1-0.1-0.1-0.2-0.1-0.3c0-0.2,0.1-0.4,0.2-0.6
			s0.2-0.3,0.3-0.5c0.1-0.1,0.2-0.1,0.3-0.2c0.1,0,0.2,0,0.3,0.1c0.1,0.1,0.1,0.2,0.2,0.3C94,30.3,94,30.3,94,30.4z M95.8,25.5
			c-0.1,1.1-0.4,2.2-0.9,3.2c-0.2,0.5-1,0.1-0.8-0.4c0.4-0.9,0.7-1.8,0.8-2.8c0.1-0.8,0.1-1.9-0.4-2.6c-0.3-0.4,0.4-0.9,0.7-0.5
			C95.9,23.3,95.9,24.4,95.8,25.5z"/>
		<path class="st2" d="M33.8,33.7c-0.4,0.5-0.5,1.1-0.4,1.7c0.1,0.6,0.3,1.2,0.8,1.5s1.1,0.4,1.6,0.3c0.5-0.1,0.9-0.3,1.2-0.6
			c0.5-0.4,0.8-1,0.8-1.6s-0.3-1.1-0.7-1.5C36.3,32.8,34.6,32.9,33.8,33.7z"/>
		<path class="st2" d="M52.2,34.5c-0.4,0.5-0.5,1.1-0.4,1.7c0.1,0.6,0.3,1.2,0.8,1.5s1.1,0.4,1.6,0.3c0.5-0.1,0.9-0.3,1.2-0.6
			c0.5-0.4,0.8-1,0.8-1.6s-0.3-1.1-0.7-1.5C54.7,33.6,53.1,33.6,52.2,34.5z"/>
		<path class="st2" d="M70.9,33.9c-0.4,0.5-0.5,1.1-0.4,1.7s0.3,1.2,0.8,1.5s1.1,0.4,1.6,0.3c0.5-0.1,0.9-0.3,1.2-0.6
			c0.5-0.4,0.8-1,0.8-1.6s-0.3-1.1-0.7-1.5C73.4,33,71.8,33,70.9,33.9z"/>
	</g>
</g>
</svg>
